<svg width="147" height="37" viewBox="0 0 147 37" fill="none" xmlns="http://www.w3.org/2000/svg">
<g id="ingresso-logo-v1-desktop-final.svg" clip-path="url(#clip0_4_1253)">
<path id="Vector" d="M25.9231 13.4255V3.42922C25.9231 1.58212 24.4258 0.283171 22.5786 0.530115L16.5572 1.33185L9.867 2.22218L3.84567 3.02392C1.9973 3.26865 0.5 4.96625 0.5 6.81334V16.8085C2.36941 16.5593 3.88444 17.8727 3.88444 19.7419C3.88444 21.6112 2.36941 23.3276 0.5 23.5756V33.5708C0.5 35.4179 1.9973 36.7168 3.84567 36.4699L9.25679 35.7501L17.1664 34.697L22.5775 33.9772C24.4247 33.7314 25.922 32.0349 25.922 30.1867V20.1915C24.0537 20.4407 22.5376 19.1273 22.5376 17.2581C22.5376 15.3888 24.0526 13.6724 25.922 13.4244L25.9231 13.4255ZM13.2116 5.29292C14.906 5.06702 16.2804 6.25855 16.2804 7.95283C16.2804 9.64711 14.9071 11.2041 13.2116 11.4289C11.5171 11.6548 10.1428 10.4632 10.1428 8.76896C10.1428 7.07468 11.516 5.51772 13.2116 5.29292ZM16.3535 30.8765C16.3535 31.1047 16.1685 31.3151 15.9393 31.345L12.9956 31.737C11.3798 31.9518 10.0697 30.8167 10.0697 29.2011V15.1474C10.0697 14.9193 10.2546 14.7089 10.4839 14.679L15.9404 13.9526C16.1685 13.9227 16.3546 14.0832 16.3546 14.3114V30.8765H16.3535Z" fill="white"/>
<path id="Vector_2" d="M55.0753 10.5053C54.7852 9.97047 54.3499 9.53305 53.7696 9.1942C53.1882 8.85534 52.4085 8.68591 51.4284 8.68591C50.6122 8.68591 49.8591 8.77561 49.1703 8.95279C48.4803 9.13108 47.8723 9.39463 47.3463 9.74235C46.8202 10.0901 46.3839 10.523 46.0406 11.0402V9.23738C46.0406 9.05245 45.8911 8.90296 45.7061 8.90296H41.7203C41.5354 8.90296 41.3859 9.05245 41.3859 9.23738V22.6931C41.3859 22.878 41.5354 23.0275 41.7203 23.0275H46.2233C46.4083 23.0275 46.5578 22.878 46.5578 22.6931V15.1341C46.7206 14.7565 46.9387 14.4221 47.2112 14.1298C47.4825 13.8385 47.7826 13.6104 48.1093 13.4476C48.436 13.2848 48.7439 13.2029 49.0341 13.2029C49.4516 13.2029 49.8193 13.3579 50.1371 13.668C50.455 13.978 50.6133 14.4775 50.6133 15.1685V22.6931C50.6133 22.878 50.7628 23.0275 50.9478 23.0275H55.4497C55.6346 23.0275 55.7841 22.878 55.7841 22.6931V13.7699C55.7841 13.2882 55.7387 12.7577 55.6479 12.1786C55.5571 11.5994 55.3666 11.0413 55.0764 10.5064L55.0753 10.5053Z" fill="white"/>
<path id="Vector_3" d="M84.9581 8.44117C84.1053 8.44117 83.298 8.69919 82.536 9.21633C81.7741 9.73347 81.1384 10.4732 80.6312 11.4344V9.23737C80.6312 9.05244 80.4817 8.90295 80.2967 8.90295H76.2301C76.0451 8.90295 75.8956 9.05244 75.8956 9.23737V22.6931C75.8956 22.878 76.0451 23.0275 76.2301 23.0275H80.7331C80.918 23.0275 81.0675 22.878 81.0675 22.6931V14.6712C81.0675 14.5849 81.0963 14.4996 81.1528 14.4343C81.5504 13.9802 82.1307 13.6514 82.8904 13.4487C83.6169 13.2549 84.4165 13.1475 85.287 13.1254C85.4664 13.1209 85.6115 12.9781 85.6115 12.7987V8.46775C85.5395 8.45003 85.462 8.44006 85.3811 8.44006H84.9592L84.9581 8.44117Z" fill="white"/>
<path id="Vector_4" d="M98.5666 9.7047C97.4049 9.02588 95.9718 8.68591 94.2663 8.68591C92.5608 8.68591 91.1277 9.0292 89.966 9.71466C88.8042 10.4012 87.9238 11.3104 87.3258 12.441C86.7266 13.5727 86.4276 14.8152 86.4276 16.1695C86.4276 17.1163 86.6004 18.02 86.9448 18.8771C87.2892 19.7353 87.7931 20.4949 88.4554 21.156C89.1177 21.8171 89.9394 22.3398 90.9184 22.7252C91.8974 23.1083 93.0137 23.301 94.2663 23.301C95.4269 23.301 96.4702 23.1327 97.396 22.7972C98.3208 22.4616 99.1248 22.0032 99.8048 21.4229C100.485 20.8426 101.016 20.1705 101.397 19.4097L97.2875 18.2348C97.1457 18.1949 96.9863 18.2481 96.9187 18.3787C96.736 18.7276 96.437 19.0077 96.0228 19.2181C95.5233 19.4728 94.9928 19.5991 94.4302 19.5991C94.0304 19.5991 93.645 19.5304 93.274 19.3931C92.9008 19.2547 92.5929 19.0354 92.3482 18.7342C92.1034 18.433 91.9628 18.041 91.9262 17.5582H101.969C102.005 17.3445 102.037 17.0986 102.064 16.8218C102.092 16.5449 102.105 16.2725 102.105 16.0045C102.105 14.7001 101.805 13.4941 101.207 12.3868C100.608 11.2794 99.7272 10.3857 98.5666 9.70691V9.7047ZM91.8166 14.4553C91.8708 14.0124 92.0026 13.6381 92.2119 13.3313C92.4201 13.0246 92.6915 12.7865 93.0281 12.616C93.3637 12.4454 93.7491 12.3602 94.1843 12.3602C94.6196 12.3602 95.005 12.4454 95.3417 12.616C95.6761 12.7865 95.9497 13.0257 96.1579 13.3313C96.3661 13.6381 96.4979 14.0124 96.5532 14.4553H91.8177H91.8166Z" fill="white"/>
<path id="Vector_5" d="M113.182 15.2681C112.402 14.906 111.395 14.5472 110.161 14.1929C109.743 14.0689 109.399 13.9581 109.126 13.8607C108.854 13.7632 108.655 13.6569 108.527 13.5417C108.4 13.4266 108.337 13.2804 108.337 13.1032C108.337 12.926 108.382 12.7843 108.473 12.678C108.564 12.5717 108.696 12.492 108.868 12.4388C109.041 12.3856 109.245 12.3591 109.481 12.3591C109.97 12.3591 110.528 12.4776 111.154 12.7134C111.713 12.9249 112.386 13.266 113.17 13.7377C113.326 13.8319 113.532 13.7865 113.627 13.6314L115.255 11.0081C115.345 10.863 115.314 10.6681 115.181 10.5607C114.346 9.88409 113.484 9.40903 112.596 9.1344C111.625 8.83541 110.659 8.68591 109.697 8.68591C108.408 8.68591 107.307 8.89964 106.39 9.32708C105.474 9.75453 104.771 10.3381 104.281 11.0767C103.791 11.8153 103.546 12.6658 103.546 13.6281C103.546 14.4476 103.732 15.102 104.104 15.5915C104.475 16.0809 105.038 16.4951 105.792 16.834C106.544 17.1728 107.484 17.5382 108.609 17.9292C109.044 18.0532 109.403 18.1695 109.683 18.2758C109.965 18.3832 110.169 18.4895 110.296 18.5958C110.423 18.7032 110.486 18.8361 110.486 18.9967C110.486 19.2037 110.396 19.351 110.214 19.4385C110.032 19.526 109.751 19.5703 109.37 19.5703C108.699 19.5703 107.95 19.4075 107.125 19.0808C106.392 18.7907 105.633 18.4009 104.849 17.9103C104.689 17.8096 104.475 17.8605 104.383 18.0255L102.918 20.6621C102.839 20.8039 102.867 20.9833 102.989 21.0896C103.784 21.7795 104.735 22.311 105.846 22.6875C107.052 23.0962 108.283 23.2999 109.534 23.2999C111.367 23.2999 112.813 22.8846 113.875 22.0519C114.937 21.2203 115.468 20.0697 115.468 18.5991C115.468 17.7675 115.282 17.0953 114.91 16.5815C114.538 16.0677 113.962 15.6302 113.181 15.267L113.182 15.2681Z" fill="white"/>
<path id="Vector_6" d="M126.817 15.2681C126.038 14.906 125.03 14.5472 123.796 14.1929C123.379 14.0689 123.034 13.9581 122.762 13.8607C122.489 13.7632 122.29 13.6569 122.163 13.5417C122.035 13.4266 121.972 13.2804 121.972 13.1032C121.972 12.926 122.018 12.7843 122.108 12.678C122.199 12.5717 122.331 12.492 122.504 12.4388C122.676 12.3856 122.88 12.3591 123.116 12.3591C123.606 12.3591 124.164 12.4776 124.79 12.7134C125.349 12.9249 126.021 13.266 126.805 13.7377C126.961 13.8319 127.167 13.7865 127.263 13.6314L128.891 11.0081C128.98 10.863 128.949 10.6681 128.816 10.5607C127.981 9.88409 127.12 9.40903 126.231 9.1344C125.26 8.83541 124.295 8.68591 123.332 8.68591C122.043 8.68591 120.942 8.89964 120.025 9.32708C119.109 9.75453 118.406 10.3381 117.917 11.0767C117.426 11.8153 117.181 12.6658 117.181 13.6281C117.181 14.4476 117.367 15.102 117.739 15.5915C118.11 16.0809 118.673 16.4951 119.427 16.834C120.179 17.1728 121.119 17.5382 122.245 17.9292C122.68 18.0532 123.039 18.1695 123.319 18.2758C123.6 18.3832 123.804 18.4895 123.931 18.5958C124.059 18.7032 124.122 18.8361 124.122 18.9967C124.122 19.2037 124.031 19.351 123.849 19.4385C123.668 19.526 123.386 19.5703 123.005 19.5703C122.334 19.5703 121.586 19.4075 120.761 19.0808C120.027 18.7907 119.269 18.4009 118.485 17.9103C118.324 17.8096 118.11 17.8605 118.018 18.0255L116.553 20.6621C116.475 20.8039 116.502 20.9833 116.624 21.0896C117.419 21.7795 118.371 22.311 119.481 22.6875C120.687 23.0962 121.918 23.2999 123.169 23.2999C125.002 23.2999 126.449 22.8846 127.511 22.0519C128.573 21.2203 129.103 20.0697 129.103 18.5991C129.103 17.7675 128.917 17.0953 128.545 16.5815C128.173 16.0677 127.597 15.6302 126.816 15.267L126.817 15.2681Z" fill="white"/>
<path id="Vector_7" d="M68.792 11.0266C68.3379 10.2459 67.7166 9.66126 66.9281 9.27146C66.1385 8.88166 65.2359 8.68677 64.2192 8.68677C63.2026 8.68677 62.341 8.86838 61.5248 9.2327C60.7074 9.59592 60.0042 10.1142 59.415 10.7875C58.8247 11.4596 58.3674 12.2459 58.0406 13.1462C57.7139 14.0453 57.5511 15.0309 57.5511 16.1039C57.5511 17.177 57.7007 18.0673 57.9997 18.9399C58.2987 19.8125 58.7206 20.5766 59.2655 21.23C59.8104 21.8844 60.4671 22.3938 61.2379 22.757C62.0098 23.1203 62.857 23.3019 63.7829 23.3019C64.7087 23.3019 65.5382 23.1158 66.3279 22.7449C67.1164 22.3728 67.7111 21.8147 68.1109 21.0705V21.9963C68.1109 22.849 67.9481 23.5023 67.6214 23.9585C67.2936 24.4137 66.8639 24.7448 66.3279 24.9519C65.793 25.1578 65.2071 25.2619 64.5725 25.2619C63.7375 25.2619 62.9534 25.0936 62.218 24.7581C61.5879 24.4701 61.0341 24.1258 60.559 23.7249C60.4261 23.613 60.2323 23.6175 60.1116 23.7437L57.8413 26.1046C57.7117 26.2397 57.7128 26.4612 57.8491 26.5908C58.6619 27.3626 59.5834 27.9628 60.6133 28.3913C61.7474 28.8631 63.0664 29.099 64.5736 29.099C66.3157 29.099 67.8396 28.7978 69.1464 28.1953C70.4521 27.5929 71.4688 26.7436 72.1941 25.6484C72.9195 24.5521 73.2828 23.2664 73.2828 21.7925V9.24045C73.2828 9.05552 73.1333 8.90603 72.9483 8.90603H69.1264C68.9415 8.90603 68.792 9.05552 68.792 9.24045V11.0289V11.0266ZM68.0766 16.1571C68.0766 17.5269 66.9658 18.6376 65.5958 18.6376C64.2259 18.6376 63.1151 17.5269 63.1151 16.1571C63.1151 14.7873 64.2259 13.6766 65.5958 13.6766C66.9658 13.6766 68.0766 14.7873 68.0766 16.1571Z" fill="white"/>
<path id="Vector_8" d="M36.2992 6.48251C37.6693 6.48251 38.78 5.37195 38.78 4.002C38.78 2.63205 37.6693 1.52148 36.2992 1.52148C34.9291 1.52148 33.8185 2.63205 33.8185 4.002C33.8185 5.37195 34.9291 6.48251 36.2992 6.48251Z" fill="white"/>
<path id="Vector_9" d="M145.447 13.2228C145.112 12.3391 144.612 11.5584 143.951 10.8807C143.289 10.203 142.471 9.66815 141.501 9.27504C140.531 8.88303 139.4 8.68591 138.114 8.68591C136.827 8.68591 135.718 8.88192 134.738 9.27504C133.759 9.66815 132.937 10.203 132.275 10.8807C131.613 11.5584 131.114 12.3391 130.779 13.2228C130.443 14.1065 130.275 15.0301 130.275 15.9935C130.275 16.9569 130.443 17.876 130.779 18.7508C131.114 19.6245 131.614 20.4063 132.275 21.0929C132.937 21.7806 133.759 22.3199 134.738 22.7119C135.718 23.1039 136.843 23.2999 138.114 23.2999C139.384 23.2999 140.531 23.1039 141.501 22.7119C142.471 22.3199 143.289 21.7795 143.951 21.0929C144.613 20.4063 145.112 19.6256 145.447 18.7508C145.783 17.876 145.951 16.9569 145.951 15.9935C145.951 15.0301 145.783 14.1065 145.447 13.2228ZM138.505 18.443C136.829 18.6999 135.406 17.2769 135.663 15.6003C135.823 14.5561 136.676 13.7023 137.72 13.5428C139.396 13.2859 140.819 14.7089 140.562 16.3855C140.402 17.4297 139.549 18.2835 138.505 18.443Z" fill="white"/>
<path id="Vector_10" d="M38.5051 22.8748H36.1251C34.8183 22.8748 33.7596 21.8161 33.7596 20.5094V9.14998C33.7596 8.96505 33.9091 8.81555 34.094 8.81555H38.504C38.6889 8.81555 38.8384 8.96505 38.8384 9.14998V22.5403C38.8384 22.7253 38.6889 22.8748 38.504 22.8748H38.5051Z" fill="white"/>
<path id="Vector_11" d="M111.734 35.4801C110.834 35.4801 110.04 35.3416 109.352 35.0626C108.664 34.7846 108.082 34.4015 107.607 33.9153C107.13 33.4292 106.771 32.8755 106.527 32.2554C106.282 31.6353 106.16 30.9841 106.16 30.3009C106.16 29.3906 106.375 28.5402 106.807 27.7495C107.238 26.9588 107.868 26.3232 108.698 25.8426C109.527 25.362 110.539 25.1217 111.735 25.1217C112.931 25.1217 113.986 25.3786 114.821 25.8935C115.564 26.3509 116.14 26.9256 116.547 27.6166C116.626 27.7495 116.552 27.9222 116.404 27.9665L113.123 28.9599C112.956 28.7162 112.753 28.5291 112.515 28.4006C112.277 28.2722 112.01 28.208 111.714 28.208C111.38 28.208 111.078 28.2921 110.807 28.4582C110.537 28.6243 110.322 28.8624 110.161 29.1714C110 29.4803 109.919 29.8568 109.919 30.3009C109.919 30.7449 109.999 31.1071 110.161 31.4215C110.321 31.736 110.537 31.9774 110.807 32.1436C111.078 32.3108 111.38 32.3938 111.714 32.3938C111.92 32.3938 112.106 32.365 112.274 32.3063C112.441 32.2488 112.598 32.1613 112.746 32.0461C112.895 31.9309 113.02 31.7958 113.123 31.6419L116.691 32.7216C116.421 33.2609 116.051 33.7371 115.583 34.149C115.113 34.5609 114.561 34.8854 113.924 35.1235C113.287 35.3616 112.557 35.4801 111.734 35.4801Z" fill="white"/>
<path id="Vector_12" d="M145.714 35.2871H142.523C142.393 35.2871 142.286 35.1808 142.286 35.0502V29.717C142.286 29.2276 142.187 28.8732 141.987 28.654C141.788 28.4347 141.547 28.324 141.263 28.324C140.98 28.324 140.672 28.4557 140.337 28.7193C140.003 28.9829 139.759 29.3217 139.604 29.7348V35.049C139.604 35.1797 139.498 35.286 139.367 35.286H136.177C136.046 35.286 135.94 35.1797 135.94 35.049V29.7159C135.94 29.2265 135.84 28.8721 135.641 28.6529C135.441 28.4336 135.2 28.3229 134.917 28.3229C134.635 28.3229 134.326 28.4502 133.992 28.706C133.657 28.9618 133.412 29.2896 133.258 29.6916V35.0479C133.258 35.1786 133.152 35.2849 133.021 35.2849H129.831C129.7 35.2849 129.594 35.1786 129.594 35.0479V25.5124C129.594 25.3817 129.7 25.2754 129.831 25.2754H132.655C132.785 25.2754 132.892 25.3817 132.892 25.5124V26.7903C133.252 26.2465 133.747 25.8324 134.377 25.5489C135.007 25.2643 135.752 25.1226 136.614 25.1226C137.476 25.1226 138.08 25.2997 138.504 25.653C138.929 26.0073 139.211 26.4049 139.353 26.8478C139.713 26.3041 140.208 25.8811 140.838 25.5777C141.468 25.2743 142.175 25.1226 142.96 25.1226C143.629 25.1226 144.163 25.2422 144.561 25.4825C144.96 25.7228 145.259 26.0328 145.458 26.4115C145.658 26.7914 145.789 27.1856 145.854 27.5964C145.918 28.0073 145.95 28.3838 145.95 28.7248V35.049C145.95 35.1797 145.844 35.286 145.713 35.286L145.714 35.2871Z" fill="white"/>
<path id="Vector_13" d="M127.946 28.3384C127.708 27.7127 127.355 27.159 126.885 26.6784C126.415 26.1978 125.836 25.8191 125.148 25.54C124.461 25.2621 123.66 25.1226 122.747 25.1226C121.835 25.1226 121.05 25.2621 120.355 25.54C119.661 25.818 119.078 26.1978 118.61 26.6784C118.14 27.159 117.787 27.7116 117.549 28.3384C117.311 28.964 117.192 29.6185 117.192 30.3017C117.192 30.985 117.311 31.6361 117.549 32.2563C117.787 32.8753 118.14 33.429 118.61 33.9162C119.08 34.4034 119.661 34.7855 120.355 35.0634C121.05 35.3414 121.847 35.4809 122.747 35.4809C123.648 35.4809 124.461 35.3425 125.148 35.0634C125.836 34.7855 126.415 34.4023 126.885 33.9162C127.355 33.4301 127.708 32.8764 127.946 32.2563C128.184 31.6361 128.304 30.985 128.304 30.3017C128.304 29.6185 128.184 28.9651 127.946 28.3384ZM123.025 32.0381C121.837 32.2197 120.829 31.212 121.011 30.0238C121.124 29.2841 121.73 28.6783 122.469 28.5654C123.658 28.3838 124.666 29.3915 124.484 30.5797C124.371 31.3194 123.765 31.9251 123.025 32.0381Z" fill="white"/>
<path id="Vector_14" d="M103.343 35.2709C104.314 35.2709 105.101 34.4841 105.101 33.5135C105.101 32.5429 104.314 31.7561 103.343 31.7561C102.373 31.7561 101.586 32.5429 101.586 33.5135C101.586 34.4841 102.373 35.2709 103.343 35.2709Z" fill="white"/>
</g>
<defs>
<clipPath id="clip0_4_1253">
<rect width="146" height="36" fill="white" transform="translate(0.5 0.5)"/>
</clipPath>
</defs>
</svg>
